<svg width="800" height="800" viewBox="0 0 800 800" fill="none" xmlns="http://www.w3.org/2000/svg">
<rect width="800" height="800" fill="#FC2626"/>
<path d="M566.816 220.488H479.805V147.246C487.812 147.246 500.41 147.246 517.598 147.246C534.785 147.051 551.191 146.855 566.816 146.66V220.488ZM589.961 643.828H545.723C527.949 643.828 509.492 638.945 490.352 629.18C467.5 617.461 447.578 600.566 430.586 578.496C425.898 573.027 418.379 562.09 408.027 545.684C396.113 526.934 386.445 510.234 379.023 495.586C369.453 476.836 364.668 463.945 364.668 456.914C372.48 452.617 379.219 448.32 384.883 444.023C390.547 439.727 399.141 431.816 410.664 420.293C392.695 420.293 375.703 420.293 359.688 420.293C343.672 420.098 326.68 419.805 308.711 419.414V646.172H220.527L219.062 148.125C241.523 148.125 258.613 148.223 270.332 148.418C282.246 148.418 293.574 148.711 304.316 149.297C304.316 178.594 304.414 202.324 304.609 220.488C304.805 238.457 305.098 260.43 305.488 286.406C305.879 312.188 306.074 331.816 306.074 345.293C323.848 345.293 338.691 345.391 350.605 345.586C362.715 345.781 378.828 346.074 398.945 346.465C419.062 346.66 433.906 346.855 443.477 347.051C459.492 347.051 468.477 346.953 470.43 346.758C478.047 345.977 481.855 342.461 481.855 336.211C481.855 334.258 481.66 330.938 481.27 326.25C481.074 321.562 480.977 318.73 480.977 317.754V252.422C482.539 252.031 485.859 251.738 490.938 251.543C496.211 251.348 502.168 251.25 508.809 251.25C519.16 251.25 529.316 251.348 539.277 251.543C549.238 251.738 558.223 252.031 566.23 252.422L566.816 337.383C567.402 344.219 567.695 350.469 567.695 356.133C567.695 379.57 561.836 395.684 550.117 404.473C538.594 413.262 518.867 417.656 490.938 417.656C484.688 418.047 477.363 418.438 468.965 418.828C460.762 419.219 451.289 419.414 440.547 419.414C442.305 425.078 443.965 430.059 445.527 434.355C450.215 446.465 456.953 460.332 465.742 475.957C473.359 489.629 481.074 503.301 488.887 516.973C497.285 529.668 505.195 538.652 512.617 543.926C523.555 551.934 537.422 557.793 554.219 561.504C566.523 564.238 578.438 565.605 589.961 565.605V643.828Z" fill="white"/>
</svg>
